<?xml version="1.0" encoding="utf-8"?>
<!-- Generator: Adobe Illustrator 25.0.1, SVG Export Plug-In . SVG Version: 6.00 Build 0)  -->
<svg version="1.0" id="katman_1" xmlns="http://www.w3.org/2000/svg" xmlns:xlink="http://www.w3.org/1999/xlink" x="0px" y="0px"
	 viewBox="0 0 800 600" style="enable-background:new 0 0 800 600;" xml:space="preserve">
<style type="text/css">
	.st0{fill:#1D1D1B;}
	.st1{fill:#C2D500;}
</style>
<g id="Group_43" transform="translate(0 15.043)">
	<path id="Path_81" class="st0" d="M155.6,309.5h-33.2c-1.9,4.4-3.9,8.8-5.6,13h-15.1c11.1-24.3,24.7-51.6,36.8-73h0.9
		c12.1,21.4,25.7,48.7,36.8,73h-15.1C159.5,318.1,157.6,313.8,155.6,309.5z M127.8,297.8h22.6c-3.7-8.2-7.6-16.4-11.3-24
		C135.3,281.4,131.5,289.6,127.8,297.8z"/>
	<path id="Path_82" class="st0" d="M206.2,279.7c-10.8,0-18,6.6-18,16.6c0,9.9,7.3,16.6,18.3,16.6c4.5-0.2,8.9-1,13.1-2.4v10
		c-5.6,2.1-11.5,3.2-17.5,3.1c-16.8,0-28-10.9-28-27.3s11.3-27.3,28-27.3c5.7,0.1,11.3,1.1,16.6,3.1v10
		C214.6,280.6,210.4,279.7,206.2,279.7z"/>
	<path id="Path_83" class="st0" d="M261.7,312.3v10c-3.9,0.7-7.8,1.1-11.7,1.2c-10.8,0-18-7-18-17.6v-26.2h-7.6v-9.7h7.6v-11.5
		l13.6-3.9v15.4h15.6v9.7h-15.6v24.1c-0.4,4.6,3.1,8.7,7.7,9c0.3,0,0.7,0,1,0C256.8,312.8,259.2,312.6,261.7,312.3z"/>
	<path id="Path_84" class="st0" d="M312.9,323c-4.1,0-8.2-1-11.9-2.8c-5.1,2.2-10.6,3.3-16.2,3.3c-12.1,0-19.4-6-19.4-16.4
		c0-10.3,7.9-16.4,21.4-16.4c4.2,0.1,8.4,0.7,12.4,2v-3.1c0-6.3-4.3-10-11.8-10c-6,0.1-11.9,0.9-17.7,2.5v-9.9
		c6.6-2.3,13.6-3.4,20.5-3.3c14.2,0,22.6,7.2,22.6,19.5L312.9,323z M290.3,313.7c3.1,0,6.1-0.6,9-1.8v-10.5c-2.8-1.2-5.9-1.9-9-1.9
		c-6.6,0-10.7,2.6-10.7,7.2C279.6,311.2,283.7,313.7,290.3,313.7z"/>
	<path id="Path_85" class="st0" d="M322.4,249.5l13.6-3.9v76.9h-13.6V249.5z"/>
	<path id="Path_86" class="st0" d="M393.6,301.1h-36.1c1,7.7,4.6,11.7,15.1,11.7c6-0.2,12-1.1,17.8-2.9v10
		c-6.7,2.4-13.8,3.6-20.9,3.6c-15.7,0-26.1-9.4-26.1-26.9c0-16.6,10.2-27.7,25.4-27.7c15.1,0,25.3,10.6,25.3,26.5
		C394,297.3,393.9,299.2,393.6,301.1z M357.4,292.3h22.8c-0.9-8-4.7-13-11.4-13C362,279.3,358.2,284.4,357.4,292.3z"/>
	<path id="Path_87" class="st0" d="M452.1,289.5v33h-13.6v-31.8c0-7.3-4.1-11-11.7-11c-4.3,0.1-8.4,1.2-12.2,3.2v39.6H401v-53.1
		c4.6-0.2,9.2,1,13,3.5c5.8-2.5,12-3.9,18.3-4C444.8,269,452.1,275.5,452.1,289.5z"/>
	<path id="Path_88" class="st0" d="M492,312.3v10c-3.9,0.7-7.8,1.1-11.7,1.2c-10.8,0-18-7-18-17.6v-26.2h-7.6v-9.7h7.6v-11.5
		l13.6-3.9v15.4h15.6v9.7H476v24.1c-0.4,4.6,3.1,8.7,7.7,9c0.3,0,0.7,0,1,0C487.2,312.8,489.6,312.6,492,312.3z"/>
</g>
<path id="Path_89" class="st1" d="M540.6,373.7l9.6-21.7c4.6-4,9.6-7.5,14.9-10.5l-14.2,32.2h5.6l15.9-36.1c4-1.9,8.2-3.6,12.4-4.9
	l-18.1,41h5.7l18.9-42.9c16.4-4.1,33.5-4.1,49.9,0.1l19.1,42.7h5.7l-18.3-40.8c4.3,1.4,8.5,3.1,12.5,5.1l16,35.7h5.7L667.6,342
	c5.4,3.2,10.5,6.9,15.2,11l9.2,20.6h5.7l-66-147.5l-7.9,17.9l-8-17.9l-7.9,17.9l-8-17.9l-65,147.5H540.6z M587,327.7
	c-4.1,1.2-8.2,2.6-12.1,4.3l4.7-10.6c3.8-1.3,7.7-2.4,11.7-3.2L587,327.7z M582,315.7l4-9c3.7-0.9,7.4-1.6,11.2-2.2l-3.7,8.4
	C589.6,313.6,585.8,314.6,582,315.7z M615.8,323.6c-7.6,0-15.1,0.8-22.5,2.4l4-9.2c12.4-2,25.1-2,37.5,0.1l4.1,9.2
	C631.4,324.5,623.6,323.7,615.8,323.6L615.8,323.6z M615.8,303.1c4.4,0,8.7,0.2,13.1,0.7l3.7,8.2c-10.9-1.6-22-1.6-33-0.1l3.6-8.2
	C607.4,303.3,611.6,303.1,615.8,303.1L615.8,303.1z M605.5,298.3l10.4-23.6l10.6,23.6c-3.5-0.3-7.1-0.4-10.7-0.4
	C612.4,297.9,609,298.1,605.5,298.3L605.5,298.3z M634.9,304.5c3.8,0.6,7.5,1.3,11.2,2.2l4.1,9.1c-3.8-1.2-7.6-2.1-11.5-2.9
	L634.9,304.5z M645.4,327.9l-4.3-9.6c4,0.9,7.9,2,11.7,3.3l4.8,10.7C653.6,330.6,649.5,329.1,645.4,327.9L645.4,327.9z M679,344.7
	c-4.5-3.4-9.3-6.4-14.2-9l-5.2-11.5c4.5,1.9,8.9,4.1,13.1,6.5L679,344.7z M669.6,323.7c-4.1-2.1-8.4-4-12.7-5.6l-4.3-9.5
	c4.1,1.3,8.2,2.7,12.2,4.4L669.6,323.7z M631.7,239l30.1,67.2c-3.9-1.5-7.9-2.7-11.9-3.8l-23.2-51.9L631.7,239z M623.8,256.9
	l19.7,44c-3.7-0.8-7.3-1.4-11.1-1.9l-13.7-30.6L623.8,256.9z M615.8,239l5.2,11.5l-5.1,11.5l-5.2-11.5L615.8,239z M607.9,256.9
	l5.2,11.5l-13.5,30.5c-3.7,0.5-7.4,1.1-11.1,1.8L607.9,256.9z M599.9,239l5.2,11.5l-22.8,51.7c-4,1.1-8,2.3-11.9,3.8L599.9,239z
	 M567.4,312.7c4-1.7,8-3.1,12.2-4.3l-4.2,9.5c-4.3,1.6-8.5,3.4-12.6,5.4L567.4,312.7z M559.7,330.2c4.2-2.4,8.6-4.5,13-6.3l-5,11.4
	c-4.9,2.5-9.6,5.4-14.1,8.7L559.7,330.2z"/>
</svg>
